<svg width="34" height="33" viewBox="0 0 34 33" fill="none" xmlns="http://www.w3.org/2000/svg">
<path d="M32.0254 21.209C32.7134 21.2092 33.2713 21.7671 33.2715 22.4551C33.2715 22.4917 33.0367 25.437 32.9834 26.3438C32.8884 27.907 32.282 29.5023 31.3604 30.6123C30.0771 32.1589 28.4419 32.8816 26.2188 32.8867C25.2871 32.8884 19.7638 32.8906 15.8838 32.8906C15.1938 32.8906 14.6339 32.3306 14.6338 31.6406C14.6338 30.9507 15.1932 30.3908 15.8848 30.3906C19.9042 30.3906 25.2251 30.3884 26.2129 30.3867C27.7161 30.3834 28.6196 29.9987 29.4346 29.0156C30.0129 28.3206 30.4266 27.2117 30.4883 26.1934C30.5417 25.2728 30.7979 22.3584 30.7979 22.3584C30.848 21.7186 31.3705 21.209 32.0254 21.209ZM1.29199 21.209C1.94699 21.209 2.46689 21.7187 2.51855 22.3604C2.52083 22.3862 2.7753 25.279 2.83008 26.1934C2.89174 27.2117 3.3035 28.3203 3.88184 29.0137C4.69847 30.0003 5.60195 30.3834 7.10352 30.3867C7.43016 30.3884 8.10689 30.3887 8.99512 30.3887C9.68512 30.3887 10.25 30.9487 10.25 31.6387C10.2499 32.3285 9.68371 32.8886 8.99219 32.8887C8.09241 32.8887 7.43566 32.8884 7.10059 32.8867C4.87565 32.8817 3.24035 32.1586 1.95703 30.6104C1.03708 29.5021 0.42834 27.907 0.334961 26.3438C0.279961 25.4371 0.0449219 22.4917 0.0449219 22.4551C0.0449697 21.7668 0.603692 21.209 1.29199 21.209ZM16.6582 21.0557C17.3481 21.0558 17.9082 21.6157 17.9082 22.3057V24.4619C17.9082 25.1518 17.3481 25.7118 16.6582 25.7119C15.9682 25.7119 15.4082 25.1519 15.4082 24.4619V22.3057C15.4082 21.6157 15.9682 21.0557 16.6582 21.0557ZM18.8096 0C21.3146 0 23.3902 1.87842 23.7002 4.30176H26.9717C30.4699 4.30176 33.3163 7.14824 33.3164 10.6465V16.4248C33.3164 16.8448 33.1068 17.2354 32.7568 17.4688C29.3202 19.7421 25.2399 21.2579 20.96 21.8496C20.9018 21.8579 20.8453 21.8613 20.7871 21.8613C20.2238 21.8613 19.7188 21.478 19.5771 20.918C19.2404 19.5932 18.0368 18.6652 16.6504 18.665C15.2487 18.665 14.0563 19.5732 13.6846 20.9248C13.5179 21.5315 12.9383 21.9263 12.3066 21.833C8.05504 21.2413 3.99315 19.7337 0.561523 17.4688C0.209857 17.2371 0 16.8448 0 16.4248V10.6465C9.90424e-05 7.14835 2.85321 4.30194 6.36133 4.30176L9.61621 4.2998C9.92627 1.87654 12.0019 0 14.5068 0H18.8096ZM14.5068 2.5C13.1669 2.5 12.0754 3.58983 12.0752 4.92969L12.0771 5.54688C12.0771 5.8784 11.9451 6.19504 11.7119 6.43164C11.477 6.66653 11.1603 6.79772 10.8271 6.79785L6.36328 6.80176C4.2317 6.80179 2.5001 8.52658 2.5 10.6465V15.7412C5.23489 17.4378 8.38138 18.6234 11.6846 19.2051C12.6229 17.3717 14.5321 16.165 16.6504 16.165C18.7852 16.1652 20.6853 17.3749 21.5986 19.2197C24.9218 18.6347 28.0782 17.4428 30.8164 15.7412V10.6465C30.8163 8.52657 29.0916 6.80176 26.9717 6.80176H16.6582C15.9683 6.80169 15.4083 6.24167 15.4082 5.55176C15.4082 4.8618 15.9683 4.30183 16.6582 4.30176H21.1582C20.8799 3.26509 19.9312 2.5 18.8096 2.5H14.5068Z" fill="#130F26"/>
</svg>
