<svg width="34" height="34" viewBox="0 0 34 34" fill="none" xmlns="http://www.w3.org/2000/svg">
<path d="M20.8721 1.29408C21.5496 1.3022 22.0948 1.85237 22.0947 2.52846C22.0947 2.85431 21.9637 3.16654 21.7314 3.39564C21.499 3.62479 21.1841 3.75205 20.8574 3.74818H10.0312C5.15573 3.74818 2.45996 6.43805 2.45996 11.3175V23.3244C2.45996 28.2038 5.15573 30.879 10.0312 30.879C10.711 30.8872 11.2605 31.4351 11.2686 32.1134C11.2605 32.7894 10.7087 33.333 10.0312 33.3331C3.84479 33.3331 0 29.4972 0 23.3244V11.3175C0 5.13 3.84479 1.29408 10.0312 1.29408H20.8721ZM30.9326 11.3175C31.6019 11.3257 32.1397 11.8693 32.1396 12.5372V23.3244C32.1396 29.4971 28.2811 33.333 22.0947 33.3331H17.1748C16.4972 33.3332 15.9456 32.7895 15.9375 32.1134C15.9456 31.435 16.4949 30.887 17.1748 30.879H22.0947C26.9701 30.879 29.6658 28.2037 29.71 23.3244V12.5372C29.71 11.9055 30.191 11.3857 30.8076 11.3234L30.9326 11.3175ZM22.5811 12.5812C23.0175 12.1673 23.6906 12.132 24.168 12.4982C24.6454 12.8646 24.7843 13.5237 24.4951 14.0509L19.7822 20.1203C19.5759 20.3744 19.2812 20.5426 18.957 20.591C18.6344 20.6237 18.3118 20.5286 18.0586 20.3263L13.5361 16.7843L9.4707 22.0607C9.2769 22.3237 8.98584 22.498 8.66211 22.5451C8.33827 22.592 8.00891 22.5078 7.74805 22.3107C7.2156 21.8942 7.11742 21.128 7.52734 20.591L12.3438 14.3302C12.5447 14.0706 12.8409 13.9009 13.167 13.8595C13.493 13.8183 13.8225 13.9084 14.082 14.1095L18.6035 17.6515L22.5811 12.5812ZM27.335 0.333143C28.9527 -0.340294 30.818 0.0262531 32.0596 1.26088C33.3011 2.4955 33.6743 4.35542 33.0049 5.97182C32.3354 7.58796 30.7556 8.64163 29.0029 8.64174C26.617 8.64175 24.6801 6.71667 24.6719 4.33607C24.6659 2.58713 25.7173 1.00661 27.335 0.333143ZM29.0029 2.46986C27.9698 2.46986 27.1318 3.30521 27.1318 4.33607C27.1319 5.36687 27.9698 6.20228 29.0029 6.20228C30.0359 6.20216 30.873 5.36679 30.873 4.33607C30.873 3.30529 30.036 2.46999 29.0029 2.46986Z" fill="#130F26"/>
</svg>
