<svg width="34" height="32" viewBox="0 0 34 32" fill="none" xmlns="http://www.w3.org/2000/svg">
<path d="M16.6765 1.73296C19.4183 -0.0199968 22.774 -0.468635 25.8669 0.50444C28.5573 1.34109 30.7945 3.26365 32.0583 5.82378C33.5359 8.92664 33.7369 12.5019 32.6169 15.7564C31.586 18.7524 29.8965 21.4688 27.6765 23.6968C26.2209 25.1929 24.6521 26.5706 22.9851 27.8169L22.8972 27.8912C22.3434 28.264 21.5983 28.1179 21.2204 27.5621C21.0283 27.2935 20.9512 26.9569 21.0066 26.6294C21.062 26.3021 21.2451 26.0112 21.5144 25.8238C23.0786 24.6452 24.5537 23.3484 25.9265 21.9439C27.9035 19.9984 29.4126 17.614 30.3376 14.9771C31.2273 12.3495 31.0473 9.46856 29.8376 6.9771C28.8642 5.01713 27.1491 3.54556 25.0876 2.9019C22.4584 2.06444 19.5942 2.57226 17.3972 4.26518C16.9605 4.59476 16.3633 4.59466 15.9265 4.26518C13.7304 2.56968 10.8643 2.06179 8.23509 2.9019C6.15996 3.53128 4.42781 4.9981 3.44114 6.96147C2.2588 9.45109 2.08955 12.3161 2.97044 14.9322C3.8993 17.5626 5.40829 19.9408 7.38157 21.8833C10.2976 24.7319 13.5137 27.2443 16.9704 29.3746C17.41 29.6852 17.603 30.2491 17.449 30.771C17.2949 31.2931 16.8286 31.6544 16.2937 31.6665C16.0526 31.668 15.8164 31.5956 15.6169 31.4576C12.0161 29.2389 8.6672 26.621 5.63157 23.6519C3.39926 21.4312 1.70358 18.7129 0.676492 15.7115C-0.404829 12.4615 -0.183205 8.90794 1.29368 5.82378C2.55748 3.26365 4.79476 1.34109 7.48509 0.50444C10.5782 -0.468774 13.9345 -0.020263 16.6765 1.73296ZM23.1472 6.66264C25.3397 7.36797 26.9 9.3479 27.1023 11.6812C27.1437 12.0075 27.0552 12.3372 26.8562 12.5962C26.6572 12.8552 26.3644 13.0217 26.0437 13.0591C25.3703 13.1477 24.7533 12.6664 24.6618 11.981C24.6004 10.5967 23.6951 9.39943 22.3972 8.98491C21.9146 8.67795 21.7 8.07456 21.8777 7.52397C22.0555 6.97332 22.5799 6.61769 23.1472 6.66264Z" fill="#130F26"/>
</svg>
